<svg width="33" height="27" viewBox="0 0 33 27" fill="none" xmlns="http://www.w3.org/2000/svg">
<path fill-rule="evenodd" clip-rule="evenodd" d="M2.0625 13.5C2.0625 20.0239 8.52639 25.3125 16.5 25.3125C24.4736 25.3125 30.9375 20.0239 30.9375 13.5C30.9375 6.97614 24.4736 1.6875 16.5 1.6875C8.52639 1.6875 2.0625 6.97614 2.0625 13.5ZM33 13.5C33 20.9558 25.6127 27 16.5 27C7.3873 27 0 20.9558 0 13.5C0 6.04416 7.3873 0 16.5 0C25.6127 0 33 6.04416 33 13.5ZM9.28125 12.6562C8.71171 12.6562 8.25 13.034 8.25 13.5C8.25 13.966 8.71171 14.3437 9.28125 14.3437H21.2291L16.802 17.9659C16.3993 18.2954 16.3993 18.8296 16.802 19.1591C17.2048 19.4886 17.8577 19.4886 18.2605 19.1591L24.448 14.0966C24.8507 13.7671 24.8507 13.2329 24.448 12.9034L18.2605 7.84088C17.8577 7.51137 17.2048 7.51137 16.802 7.84088C16.3993 8.17038 16.3993 8.70462 16.802 9.03412L21.2291 12.6562H9.28125Z" fill="#D3CA25"/>
</svg>
