<svg width="33" height="27" viewBox="0 0 33 27" fill="none" xmlns="http://www.w3.org/2000/svg">
<path d="M16.5 25.3125C8.52639 25.3125 2.0625 20.0239 2.0625 13.5C2.0625 6.97614 8.52639 1.6875 16.5 1.6875C24.4736 1.6875 30.9375 6.97614 30.9375 13.5C30.9375 20.0239 24.4736 25.3125 16.5 25.3125ZM16.5 27C25.6127 27 33 20.9558 33 13.5C33 6.04416 25.6127 0 16.5 0C7.3873 0 0 6.04416 0 13.5C0 20.9558 7.3873 27 16.5 27Z" fill="#D3CA25"/>
<path d="M14.4375 19.4062C14.4375 18.9403 14.8992 18.5625 15.4688 18.5625H17.5312C18.1008 18.5625 18.5625 18.9403 18.5625 19.4062C18.5625 19.8722 18.1008 20.25 17.5312 20.25H15.4688C14.8992 20.25 14.4375 19.8722 14.4375 19.4062Z" fill="#D3CA25"/>
<path d="M10.3125 14.3438C10.3125 13.8778 10.7742 13.5 11.3438 13.5H21.6562C22.2258 13.5 22.6875 13.8778 22.6875 14.3438C22.6875 14.8097 22.2258 15.1875 21.6562 15.1875H11.3438C10.7742 15.1875 10.3125 14.8097 10.3125 14.3438Z" fill="#D3CA25"/>
<path d="M6.1875 9.28125C6.1875 8.81526 6.64921 8.4375 7.21875 8.4375H25.7812C26.3508 8.4375 26.8125 8.81526 26.8125 9.28125C26.8125 9.74724 26.3508 10.125 25.7812 10.125H7.21875C6.64921 10.125 6.1875 9.74724 6.1875 9.28125Z" fill="#D3CA25"/>
</svg>
