<svg width="42" height="48" viewBox="0 0 42 48" fill="none" xmlns="http://www.w3.org/2000/svg">
<path fill-rule="evenodd" clip-rule="evenodd" d="M5.25 37.5C5.25 36.6716 5.83763 36 6.5625 36H35.4375C36.1624 36 36.75 36.6716 36.75 37.5C36.75 38.3284 36.1624 39 35.4375 39H6.5625C5.83763 39 5.25 38.3284 5.25 37.5Z" fill="#D3CA25"/>
<path fill-rule="evenodd" clip-rule="evenodd" d="M5.25 28.5C5.25 27.6716 5.83763 27 6.5625 27H35.4375C36.1624 27 36.75 27.6716 36.75 28.5C36.75 29.3284 36.1624 30 35.4375 30H6.5625C5.83763 30 5.25 29.3284 5.25 28.5Z" fill="#D3CA25"/>
<path fill-rule="evenodd" clip-rule="evenodd" d="M5.25 19.5C5.25 18.6716 5.83763 18 6.5625 18H35.4375C36.1624 18 36.75 18.6716 36.75 19.5C36.75 20.3284 36.1624 21 35.4375 21H6.5625C5.83763 21 5.25 20.3284 5.25 19.5Z" fill="#D3CA25"/>
<path fill-rule="evenodd" clip-rule="evenodd" d="M5.25 10.5C5.25 9.67157 5.83763 9 6.5625 9H35.4375C36.1624 9 36.75 9.67157 36.75 10.5C36.75 11.3284 36.1624 12 35.4375 12H6.5625C5.83763 12 5.25 11.3284 5.25 10.5Z" fill="#D3CA25"/>
</svg>
